<svg width="30" height="30" viewBox="0 0 30 30" fill="none" xmlns="http://www.w3.org/2000/svg">
<g clip-path="url(#clip0_107_427)">
<path d="M28.8723 0.0839844H4.33049C2.35236 0.0839844 1.61328 0.717525 1.61328 2.42249V23.0032C1.61328 23.1989 1.62415 23.3759 1.64589 23.5436C1.68936 23.9163 1.70023 24.2796 2.10238 24.6896C2.14585 24.7268 2.55887 24.997 2.55887 24.997C2.77625 25.0902 2.92841 25.1554 3.17839 25.2486L15.2537 29.5902C15.8841 29.8324 16.1449 29.9349 16.6014 29.9256C17.0579 29.9349 17.3188 29.8417 17.9491 29.5902L30.0244 25.2486C30.2744 25.1647 30.4266 25.0902 30.644 24.997C30.644 24.997 31.057 24.7362 31.1004 24.6896C31.5026 24.2796 31.5135 23.9163 31.5569 23.5436C31.5787 23.3759 31.5895 23.1989 31.5895 23.0032V2.42249C31.5895 0.717525 30.8613 0.0839844 28.8723 0.0839844Z" fill="#ED1A23"/>
<path d="M27.2202 20.7765L27.2093 20.8231L27.1984 20.879L27.1876 20.9256L27.1658 20.9722L27.155 21.0188L27.1332 21.0653L27.1115 21.1119L27.0897 21.1492L27.068 21.1958L27.0354 21.233L27.0028 21.2703L26.9702 21.3076L26.9376 21.3449L26.905 21.3821L26.8615 21.4194L26.8289 21.4473L26.7854 21.4846L26.7419 21.5126L26.6985 21.5405L26.655 21.5591L26.6115 21.5871L26.5572 21.615L26.5028 21.6337L26.4485 21.6616L26.3941 21.6803L26.3398 21.6989L26.2855 21.7175V21.7082L26.2311 21.7268L26.1768 21.7362L26.0789 21.7548L26.0246 21.7641L25.9703 21.7734L25.9159 21.7827L25.8616 21.7921L25.7964 21.8014L25.742 21.8107H25.5246L25.4703 21.8014H25.4051L25.3507 21.7921L25.2964 21.7827L25.2312 21.7734L25.1768 21.7641L25.1225 21.7548L25.0681 21.7455L25.0138 21.7362L24.9595 21.7268L24.9051 21.7175L24.8508 21.6989L24.7964 21.6896L24.7421 21.6709L24.6877 21.6523L24.6334 21.6337L24.579 21.615L24.5247 21.5964L24.4704 21.5778L24.416 21.5591L24.3617 21.5405L24.3073 21.5219L24.253 21.5032L24.1986 21.4753L24.1552 21.4473L24.1008 21.4194L24.0573 21.3914L24.0139 21.3635L23.9704 21.3355L23.9269 21.3076L23.8834 21.2796L23.84 21.2517L23.7965 21.2237L23.753 21.1865L23.7856 21.1492L23.8291 21.1119L23.8617 21.0747L23.9052 21.0374L23.9378 21.0001L23.9704 20.9629L24.0139 20.9256L24.0465 20.8883L24.0899 20.8511L24.1226 20.8138L24.166 20.7765L24.1986 20.7393L24.2312 20.702L24.2747 20.6647L24.3073 20.6275L24.3508 20.5902L24.3834 20.5529L24.4269 20.5809L24.4812 20.6088L24.5247 20.6368L24.579 20.6647L24.6225 20.6927L24.6769 20.7206L24.7203 20.7486L24.7747 20.7672L24.8182 20.7952L24.8725 20.8138L24.9268 20.8324L24.9812 20.8511L25.0355 20.8697L25.0899 20.8883L25.1442 20.907L25.1986 20.9256L25.2529 20.9442L25.3073 20.9535L25.4159 20.9722L25.4812 20.9815L25.5355 20.9908H25.5898L25.6551 21.0001H25.7746L25.8398 20.9908L25.8942 20.9815L25.9485 20.9722L26.0029 20.9629L26.0463 20.9442L26.0898 20.9256L26.1333 20.8976L26.1659 20.8604L26.1876 20.8231L26.2094 20.7765L26.2202 20.7299V20.7206L26.2094 20.6647L26.1876 20.6181L26.155 20.5809L26.1115 20.5529L26.0681 20.525L26.0246 20.5063L25.9703 20.4877L25.9159 20.4691L25.8507 20.4411L25.8072 20.4318L25.7637 20.4225L25.7094 20.4039L25.6551 20.3945L25.6007 20.3759L25.5464 20.3666L25.4812 20.348L25.4268 20.3386L25.3616 20.32L25.3073 20.3107L25.2529 20.2921L25.1986 20.2827L25.1442 20.2641L25.0899 20.2455L25.0355 20.2362L24.9812 20.2175L24.9268 20.1989L24.8725 20.1803L24.8073 20.1616L24.7529 20.143L24.6986 20.1244L24.6443 20.1057L24.5899 20.0778L24.5356 20.0498L24.4921 20.0219L24.4377 19.9939L24.3943 19.966L24.3508 19.938L24.3073 19.9101L24.2638 19.8728L24.2204 19.8355L24.1878 19.7983L24.1552 19.761L24.1226 19.7237L24.0899 19.6865L24.0573 19.6399L24.0356 19.6026L24.0139 19.5653L24.003 19.5188L23.9813 19.4815L23.9704 19.4349L23.9595 19.3883L23.9487 19.3417L23.9378 19.2952L23.9269 19.2393V19.1275L23.9378 19.0809L23.9487 19.0343L23.9595 18.9877L23.9704 18.9411L23.9813 18.8945L24.003 18.848L24.0139 18.8014L24.0356 18.7548L24.0573 18.7082L24.0791 18.6616L24.1117 18.615L24.1443 18.5685L24.1769 18.5312L24.2095 18.4939L24.253 18.4567L24.2965 18.4194L24.3399 18.3821L24.3834 18.3449L24.4269 18.3169L24.4704 18.2889L24.5138 18.261L24.5573 18.233L24.6117 18.2051L24.666 18.1865L24.7203 18.1585L24.7747 18.1399L24.829 18.1212L24.8834 18.1026L24.9377 18.084L24.9812 18.0747L25.0355 18.0653L25.0899 18.056L25.1442 18.0467L25.1986 18.0374L25.2529 18.0281L25.3073 18.0188L25.3616 18.0094L25.4159 18.0001H25.6551L25.7203 18.0094L25.7855 18.0188H25.8398L25.905 18.0281L25.9594 18.0374L26.0246 18.0467L26.0789 18.056L26.1333 18.0653L26.1876 18.0747L26.242 18.084L26.2963 18.0933L26.3507 18.1119L26.405 18.1306L26.4594 18.1399L26.5137 18.1585L26.568 18.1771L26.6224 18.1958L26.6767 18.2144L26.7311 18.233L26.7854 18.261L26.8289 18.2796L26.8832 18.3076L26.9376 18.3355L26.9811 18.3635L27.0354 18.3914L27.0789 18.4194L27.1224 18.4473L27.1658 18.4753L27.2093 18.5032L27.1767 18.5405L27.1441 18.5778L27.1115 18.615L27.0789 18.6523L27.0463 18.6989L27.0137 18.7362L26.9811 18.7734L26.9485 18.8107L26.9158 18.848L26.8832 18.8852L26.8506 18.9225L26.818 18.9598L26.7854 19.0063L26.7528 19.0436L26.7202 19.0809L26.6115 19.2858L26.5789 19.3231L26.5354 19.2952L26.4811 19.2672L26.4376 19.2393L26.3941 19.2113L26.3398 19.1927L26.2963 19.1647L26.242 19.1461L26.1985 19.1275L26.1442 19.1088L26.1007 19.0902L26.0463 19.0716L26.0029 19.0529L25.9376 19.0343L25.8833 19.0157L25.829 18.997L25.7746 18.9877L25.742 19.0063L25.6877 18.997L25.6333 18.9877L25.579 18.9784L25.5246 18.9691H25.4051L25.3399 18.9784L25.2855 18.9877L25.2312 18.997L25.1877 19.0157L25.1442 19.0343L25.0899 19.0716L25.0573 19.1181L25.0355 19.1647L25.0247 19.2113V19.2206L25.0355 19.2858L25.0573 19.3417L25.079 19.3697L25.1225 19.407L25.1768 19.4349L25.2203 19.4629L25.2746 19.4815L25.3399 19.5001L25.4051 19.5188L25.4485 19.5281L25.492 19.5467L25.5464 19.556L25.6007 19.5747L25.6551 19.584L25.7203 19.6026L25.7855 19.6212L25.8507 19.6399L25.9159 19.6492L25.9703 19.6678L26.0355 19.6865L26.0898 19.6958L26.1442 19.7144L26.1985 19.733L26.2528 19.7517L26.3072 19.7703L26.3615 19.7889L26.4159 19.7983L26.4811 19.8169L26.5354 19.8449L26.5898 19.8635L26.6441 19.8914L26.6985 19.9194L26.7528 19.9473L26.7963 19.9753L26.8398 20.0032L26.8832 20.0312L26.9267 20.0685L26.9702 20.1057L27.0137 20.143L27.0571 20.1803L27.0897 20.2175L27.1224 20.2641L27.155 20.3014L27.1876 20.348L27.2093 20.3852L27.231 20.4318L27.2419 20.4784L27.2528 20.525L27.2745 20.6181L27.2854 20.6647L27.2963 20.7206V20.8324L27.2202 20.7765ZM23.3617 21.7268H20.1989V18.2703H23.3835V19.0529H21.2532V19.6212H23.1661V20.3573H21.2532V20.9442H23.4161V21.7268H23.3617ZM19.3294 21.7268H18.3186V19.6865L18.286 19.7237L18.2534 19.7703L18.2208 19.8076L18.1882 19.8449L18.1556 19.8914L18.123 19.9287L18.0903 19.966L18.0577 20.0126L18.0251 20.0498L17.9925 20.0871L17.9599 20.1244L17.9273 20.1709L17.8947 20.2082L17.8621 20.2455L17.8295 20.2921L17.7969 20.3293L17.7643 20.3666L17.7317 20.4132L17.7099 20.4504L17.6773 20.4877L17.6447 20.5343L17.6121 20.5716L17.5795 20.6088L17.5469 20.6554L17.5143 20.6927L17.4926 20.7299L17.46 20.7672L17.4273 20.8138L17.3947 20.8511L17.3621 20.8883L17.3404 20.9349L17.3078 20.9722L17.2752 21.0094L17.2426 21.056L17.21 21.0933H17.1882L17.1556 21.0467L17.123 21.0094L17.0904 20.9629L17.0578 20.9256L17.0252 20.879L16.9926 20.8417L16.96 20.7952L16.9274 20.7579L16.8948 20.7113L16.873 20.674L16.8404 20.6275L16.8078 20.5902L16.7752 20.5436L16.8296 20.497L16.797 20.4504L16.7643 20.4132L16.7317 20.3666L16.6991 20.3293L16.6665 20.2827L16.6339 20.2455L16.6122 20.2175L16.5796 20.1803L16.547 20.1337L16.5144 20.0964L16.4818 20.0498L16.4492 20.0126L16.4165 19.966L16.3948 19.938L16.3622 19.8914L16.3296 19.8542L16.297 19.8076L16.2644 19.7703L16.2318 19.7237L16.1992 19.6865V21.7175H15.1558V18.261H16.2861L16.3187 18.2983L16.3513 18.3449L16.3839 18.3821L16.4165 18.4287L16.4492 18.466L16.4818 18.5126L16.5144 18.5498L16.547 18.5964L16.5796 18.6337L16.6122 18.6709L16.6448 18.7175L16.6774 18.7548L16.71 18.8014L16.7426 18.8386L16.7752 18.8852L16.8078 18.9225L16.8404 18.9598L16.873 19.0063L16.9056 19.0436L16.9382 19.0902L16.9709 19.1275L17.0035 19.174L17.0361 19.2113L17.0578 19.2579L17.0904 19.2952L17.1122 19.3324L17.1448 19.379L17.1774 19.4163L17.21 19.4629L17.2426 19.5001L17.2643 19.5467L17.2969 19.584L17.3295 19.6306L17.3621 19.6678L17.3947 19.6306L17.4273 19.584L17.46 19.5467L17.4926 19.5001L17.5252 19.4629L17.5578 19.4163L17.5904 19.379L17.623 19.3324L17.6556 19.2952L17.6773 19.2579L17.7099 19.2113L17.7425 19.174L17.7751 19.1275L17.8078 19.0902L17.8404 19.0436L17.873 19.0063L17.9056 18.9598L17.9382 18.9225L17.9708 18.8852L18.0034 18.8386L18.036 18.8014L18.0686 18.7548L18.1012 18.7175L18.1338 18.6709L18.1556 18.6337L18.1882 18.5964L18.2208 18.5498L18.2534 18.5126L18.286 18.466L18.3186 18.4287L18.3512 18.3821L18.3838 18.3449L18.4164 18.2983L18.449 18.261H19.5794V21.7175L19.3294 21.7268ZM12.9385 20.3014L12.9168 20.2548L12.895 20.2082L12.8733 20.1616L12.8516 20.115L12.8298 20.0685L12.8081 20.0219L12.7864 19.9753L12.7646 19.9287L12.7429 19.8821L12.7211 19.8355L12.6994 19.7889L12.6777 19.7424L12.6559 19.6958L12.6342 19.6492L12.6125 19.6026L12.5907 19.556L12.569 19.5094L12.5472 19.4629L12.5255 19.4163L12.5038 19.3697L12.482 19.3231L12.4603 19.2765L12.4385 19.3231L12.4168 19.3697L12.3951 19.4163L12.3733 19.4629L12.3516 19.5094L12.3299 19.556L12.3081 19.6026L12.2864 19.6492L12.2646 19.6958L12.2429 19.7424L12.2212 19.7889L12.1994 19.8355L12.1777 19.8821L12.156 19.9287L12.1342 19.9753L12.1125 20.0219L12.0907 20.0685L12.069 20.115L12.0473 20.1616L12.0255 20.2082L12.0038 20.2548L11.9821 20.3014L11.9603 20.348H12.895L12.9385 20.3014ZM14.6667 21.7268H13.5906L13.5689 21.6803L13.5472 21.6337L13.5254 21.5871L13.5037 21.5405L13.482 21.4939L13.4602 21.4473L13.4385 21.4007L13.4167 21.3542L13.395 21.3076L13.3733 21.261L13.3515 21.2144L13.3298 21.1678L13.3081 21.1212L13.2863 21.0747L13.2646 21.0281H11.6995L11.6777 21.0747L11.656 21.1212L11.6343 21.1678L11.6125 21.2144L11.5908 21.261L11.5473 21.3449L11.5256 21.3914L11.5038 21.438L11.4821 21.4846L11.4604 21.5312L11.4386 21.5778L11.4169 21.6244L11.3951 21.6709L11.3734 21.7175H10.2865L10.3083 21.6709L10.3517 21.5871L10.3735 21.5405L10.3952 21.4939L10.4387 21.4101L10.4604 21.3635L10.4822 21.3169L10.5039 21.2703L10.5256 21.2424L10.5474 21.1958L10.5691 21.1492L10.5908 21.1026L10.6126 21.056L10.6343 21.0094L10.6561 20.9629L10.6778 20.9163L10.6995 20.8697L10.7213 20.8231L10.743 20.7765L10.7647 20.7299L10.8082 20.6461L10.83 20.5995L10.8517 20.5529L10.8734 20.5063L10.8952 20.4598L10.9169 20.4132L10.9386 20.3666L10.9604 20.32L10.9821 20.2734L11.0039 20.2268L11.0256 20.1803L11.0473 20.1337L11.0691 20.0871L11.0908 20.0405L11.1126 19.9939L11.1343 19.9473L11.156 19.9008L11.1778 19.8542L11.1995 19.8076L11.2212 19.761L11.243 19.7144L11.2647 19.6678L11.2865 19.6212L11.3082 19.5747L11.3299 19.5281L11.3517 19.4815L11.3734 19.4349L11.3951 19.3883L11.4169 19.3417L11.4386 19.2952L11.4604 19.2486L11.4821 19.202L11.5038 19.1554L11.5473 19.0716L11.569 19.025L11.5908 18.9784L11.6125 18.9318L11.6343 18.8852L11.656 18.8386L11.6777 18.7921L11.6995 18.7455L11.7212 18.6989L11.7429 18.6523L11.7647 18.6057L11.7755 18.5591L11.7973 18.5126L11.819 18.466L11.8408 18.4194L11.8625 18.3728L11.8842 18.3262L11.906 18.2796L11.9277 18.233L11.9495 18.1865L11.9929 18.1026L12.0147 18.056H13.0363L13.0581 18.1026L13.0798 18.1492L13.1015 18.1958L13.1233 18.2424L13.145 18.2889L13.1668 18.3355L13.1885 18.3821L13.2102 18.4287L13.232 18.4753L13.2537 18.5219L13.2755 18.5685L13.2972 18.615L13.3189 18.6616L13.3407 18.7082L13.3624 18.7548L13.3841 18.8014L13.4059 18.848L13.4276 18.8945L13.4494 18.9411L13.4711 18.9877L13.4928 19.0343L13.5146 19.0809L13.5363 19.1275L13.558 19.174L13.5798 19.2206L13.6015 19.2672L13.6233 19.3138L13.645 19.3604L13.6667 19.407L13.6885 19.4535L13.7319 19.5374L13.7537 19.584L13.7754 19.6306L13.7972 19.6771L13.8189 19.7237L13.8406 19.7703L13.8624 19.8169L13.8841 19.8635L13.9058 19.9101L13.9276 19.9566L13.9493 20.0032L13.9711 20.0498L13.9928 20.0964L14.0145 20.143L14.0363 20.1896L14.058 20.2362L14.0797 20.2827L14.1015 20.3293L14.1232 20.3759L14.145 20.4225L14.1667 20.4691L14.1884 20.5157L14.2102 20.5622L14.2319 20.6088L14.2536 20.6554L14.2754 20.702L14.2971 20.7486L14.3189 20.7952L14.3406 20.8417L14.3623 20.8883L14.3841 20.9349L14.4058 20.9815L14.4275 21.0281L14.4493 21.0747L14.471 21.1212L14.4928 21.1678L14.5145 21.2144L14.5362 21.261L14.558 21.3076L14.5797 21.3542L14.6014 21.4007L14.6232 21.4473L14.6449 21.4939L14.6667 21.5405L14.6884 21.5871L14.7101 21.6337L14.7319 21.6803L14.7753 21.7641L14.6667 21.7268ZM9.8409 21.2796L9.79742 21.3076L9.75395 21.3355L9.71047 21.3635L9.667 21.3914L9.62352 21.4194L9.58004 21.4473L9.53657 21.4753L9.48222 21.5032L9.42788 21.5312L9.37354 21.5591L9.31919 21.5778L9.26485 21.6057L9.2105 21.6244L9.15616 21.643L9.10182 21.6616L9.04747 21.6803L8.99313 21.6989L8.93878 21.7175L8.88444 21.7362L8.83009 21.7548L8.77575 21.7734L8.72141 21.7827L8.66706 21.7921L8.61272 21.8014L8.55837 21.8107L8.50403 21.82L8.43882 21.8293L8.38447 21.8386L8.31926 21.848L8.26491 21.8573L8.1997 21.8666H8.0258L7.97146 21.8573L7.90624 21.848L7.8519 21.8386L7.79755 21.8293L7.74321 21.82L7.68887 21.8107L7.63452 21.8014L7.58018 21.7921L7.52583 21.7827L7.47149 21.7734L7.41715 21.7641L7.3628 21.7455L7.30846 21.7268L7.25411 21.7082L7.19977 21.6896L7.14542 21.6709L7.09108 21.6523L7.03674 21.6337L6.98239 21.6057L6.93892 21.5871L6.88457 21.5591L6.8411 21.5312L6.79762 21.5032L6.75415 21.4753L6.71067 21.4473L6.6672 21.4194L6.62372 21.3914L6.58024 21.3635L6.53677 21.3262L6.49329 21.2983L6.44982 21.261L6.40634 21.2237L6.37374 21.1865L6.34113 21.1492L6.30852 21.1119L6.27592 21.0747L6.24331 21.0374L6.2107 21.0001L6.18897 20.9629L6.15636 20.9163L6.12375 20.879L6.10202 20.8324L6.08028 20.7858L6.05854 20.7393L6.0368 20.6927L6.01506 20.6554L5.99333 20.6088L5.98246 20.5622L5.96072 20.5157L5.94985 20.4691L5.92811 20.4225L5.91725 20.3759V20.3293L5.90638 20.2827V20.2362L5.89551 20.1896V19.7889L5.90638 19.733L5.91725 19.6865L5.92811 19.6399L5.93898 19.5933L5.96072 19.5467L5.97159 19.5001L5.99333 19.4535L6.01506 19.407L6.0368 19.3604L6.05854 19.3138L6.08028 19.2672L6.10202 19.2206L6.12375 19.174L6.14549 19.1275L6.1781 19.0809L6.2107 19.0436L6.23244 19.0063L6.26505 18.9691L6.29765 18.9318L6.33026 18.8945L6.36287 18.8573L6.39547 18.82L6.42808 18.7827L6.47156 18.7455L6.50416 18.7082L6.54764 18.6709L6.59111 18.6337L6.63459 18.6057L6.67806 18.5685L6.72154 18.5405L6.76502 18.5126L6.80849 18.4846L6.85197 18.4567L6.89544 18.4287L6.93892 18.4008L6.99326 18.3728L7.0476 18.3449L7.10195 18.3169L7.15629 18.2983L7.21064 18.2796L7.26498 18.2517L7.30846 18.233L7.3628 18.2144L7.41715 18.1958L7.47149 18.1865L7.52583 18.1678L7.58018 18.1585L7.63452 18.1399L7.68887 18.1306L7.74321 18.1212L7.79755 18.1119L7.8519 18.1026L7.90624 18.0933L7.96059 18.084L8.01493 18.0747H8.24318L8.30839 18.084L8.3736 18.0933H8.42795L8.48229 18.1026L8.5475 18.1119L8.60185 18.1212L8.65619 18.1306L8.71054 18.1399L8.76488 18.1492L8.81923 18.1585L8.87357 18.1678L8.92791 18.1865L8.98226 18.1958L9.02573 18.2144L9.08008 18.233L9.1779 18.2703L9.23224 18.2889L9.28659 18.3169L9.34093 18.3355L9.38441 18.3635L9.43875 18.3914L9.48222 18.4194L9.53657 18.4473L9.58004 18.4753L9.62352 18.5032L9.667 18.5312L9.71047 18.5591L9.75395 18.5964L9.79742 18.6244L9.76481 18.6616L9.72134 18.6989L9.68873 18.7362L9.64526 18.7734L9.61265 18.8107L9.58004 18.848L9.53657 18.8852L9.50396 18.9225L9.47136 18.9598L9.42788 18.997L9.39527 19.0343L9.3518 19.0716L9.31919 19.1088L9.28659 19.1461L9.24311 19.1834L9.2105 19.2206L9.16703 19.2579L9.13442 19.2952L9.09095 19.2672L9.04747 19.2299L9.004 19.202L8.96052 19.174L8.91704 19.1461L8.87357 19.1181L8.83009 19.0902L8.77575 19.0622L8.73227 19.0436L8.6888 19.025L8.64532 19.0063L8.59098 18.9877L8.53664 18.9691L8.48229 18.9598L8.42795 18.9504L8.3736 18.9411L8.31926 18.9318L8.25405 18.9225L8.18883 18.9132H8.06928L8.01493 18.9225L7.96059 18.9318L7.90624 18.9411L7.8519 18.9504L7.79755 18.9691L7.74321 18.9877L7.69974 19.0995L7.64539 19.1181L7.60192 19.1461L7.55844 19.174L7.51496 19.202L7.47149 19.2299L7.42801 19.2579L7.38454 19.2858L7.35193 19.3231L7.30846 19.3604L7.27585 19.3976L7.24324 19.4349L7.21064 19.4722L7.1889 19.5188L7.15629 19.556L7.13456 19.6026L7.11282 19.6492L7.09108 19.6958L7.06934 19.7424L7.05847 19.7889L7.0476 19.8355L7.03674 19.8914V20.2362L7.0476 20.2827L7.05847 20.3293L7.06934 20.3759L7.09108 20.4225L7.15629 20.4039L7.17803 20.4504L7.19977 20.497L7.23238 20.5436L7.28672 20.6181L7.31933 20.6554L7.35193 20.6927L7.39541 20.7299L7.42801 20.7672L7.47149 20.7952L7.51496 20.8231L7.55844 20.8511L7.60192 20.879L7.64539 20.907L7.69974 20.9256L7.75408 20.9442L7.80842 20.9629L7.86277 20.9815L7.91711 21.0001L7.97146 21.0094L8.0258 21.0188L8.08014 21.0281L8.14536 21.0374H8.24318L8.30839 21.0281L8.3736 21.0188L8.42795 21.0094L8.48229 21.0001L8.53664 20.9908L8.59098 20.9815L8.64532 20.9722L8.69967 20.9535L8.74314 20.9349L8.79749 20.9163L8.84096 20.8976L8.88444 20.8697V20.4039H8.08014V19.7144H9.8735V21.261L9.8409 21.2796ZM8.06928 10.4535H10.4604V8.86969H8.06928V5.63677H10.5582V4.05292H6.0368V15.4846H10.5908V13.9008H8.06928V10.4535ZM25.1768 10.7983V13.379C25.1768 13.8355 24.9268 14.0498 24.416 14.0498H24.0356C23.503 14.0498 23.253 13.8355 23.253 13.379V6.15851C23.253 5.70199 23.503 5.48771 24.0356 5.48771H24.3725C24.8834 5.48771 25.1334 5.70199 25.1334 6.15851V8.39454H27.1224V6.05603C27.1224 4.63988 26.3289 3.95044 24.6769 3.95044H23.6878C22.0357 3.95044 21.2206 4.6492 21.2206 6.07466V13.4535C21.2206 14.879 22.0357 15.5778 23.6878 15.5778H24.6877C26.3398 15.5778 27.155 14.879 27.155 13.4535V10.7889H25.1768M18.1338 4.05292H20.1663V15.4846H18.1338V4.05292ZM15.1884 9.13056C15.1884 9.58709 14.9384 9.80137 14.4275 9.80137H13.5906V5.59019H14.4275C14.9384 5.59019 15.1884 5.80448 15.1884 6.261V9.13056ZM14.7536 4.05292H11.569V15.4846H13.6015V11.3386H14.7536C16.4057 11.3386 17.2208 10.6399 17.2208 9.21442V6.17715C17.2208 4.75168 16.4057 4.05292 14.7536 4.05292ZM10.8191 25.8169H22.4379L16.5144 27.4939L10.8191 25.8169Z" fill="white"/>
</g>
<defs>
<clipPath id="clip0_107_427">
<rect width="30" height="30" fill="white"/>
</clipPath>
</defs>
</svg>
