<svg width="71" height="104" viewBox="0 0 71 104" fill="none" xmlns="http://www.w3.org/2000/svg">
<path d="M3.39251 12.2314L1 23.7223L3.39251 26.4652H1V31.284L4.54091 32.2106V33.5821L1 35.4355V41.3662H3.39251L4.54091 54.4509L1 56.0819L19.9487 88.8863H23.2025L17.604 71.6872H19.9487L17.604 68.0175L15.8336 65.7193V58.3801H17.604V45.7402L3.39251 12.2314Z" fill="#ED1A23" stroke="black" stroke-width="0.306667"/>
<path d="M67.6075 11.0083L70 22.4991L67.6075 25.2421H70V30.0608L66.4591 30.9875V32.359L70 34.2123V40.1431H67.6075L66.4591 53.2278L70 54.8587L51.0513 87.6632H47.7975L53.396 70.464H51.0513L53.396 66.7944L55.1664 64.4962V57.1569H53.396V44.517L67.6075 11.0083Z" fill="#ED1A23" stroke="black" stroke-width="0.306667"/>
<path d="M35.3562 1L33.2986 4.22484V10.1927L31.5282 13.3804H29.4228L26.791 57.8981L31.5282 60.641V66.3865L29.4228 69.6113V71.2052L35.3562 103.12L42.1509 71.2052L40.3805 68.2398L38.3229 66.3865V60.641L42.1509 57.8981L40.3805 13.3804H38.3229L37.7009 10.1927V4.22484L35.3562 1Z" fill="#ED1A23" stroke="black" stroke-width="0.306667"/>
</svg>
