<svg width="24" height="30" viewBox="0 0 24 30" fill="none" xmlns="http://www.w3.org/2000/svg">
<path d="M0.838985 21.871C-0.00933766 22.8387 0.273436 24.6774 2.08319 25.5484C3.9495 26.6129 5.98547 26.9032 7.96489 26.3226C8.078 26.3226 8.19111 26.2258 8.24767 26.2258V22.9355L6.3248 24C5.58959 24.3871 4.85438 24.4839 4.11917 24.1935C3.55362 23.9032 3.66673 23.3226 4.34538 22.8387L8.24767 20.5161V16.9355L2.8184 20.129C2.13975 20.5161 1.46109 21.0968 0.838985 21.871ZM13.9597 7.35484V16.7419C16.2785 18.6774 18.0882 16.7419 18.0882 11.7097C18.0882 6.58065 17.0137 4.25806 13.9032 2.41935C12.2631 1.45161 10.5664 0.580645 8.86977 0V27.9677L12.8286 30V6.48387C12.8286 5.41936 12.8286 4.64516 13.281 4.93548C13.9032 5.22581 13.9597 6.29032 13.9597 7.35484ZM21.3118 19.6452C19.6717 18.6774 17.9185 18.2903 16.2219 18.5806C15.317 18.6774 14.4687 19.0645 13.6769 19.5484L13.5073 19.6452V23.4194L17.1833 21.0968C17.9185 20.7097 18.6538 20.6129 19.389 20.9032C19.9545 21.1935 19.8414 21.7742 19.1628 22.2581L13.5073 25.8387V29.5161L21.3118 24.5806C21.8774 24.1935 22.3864 23.7097 22.8388 22.9355C23.2347 21.9677 23.065 20.6129 21.3118 19.6452Z" fill="#ED1A23"/>
</svg>
