<svg width="30" height="30" viewBox="0 0 30 30" fill="none" xmlns="http://www.w3.org/2000/svg">
<path fill-rule="evenodd" clip-rule="evenodd" d="M15 30C23.2843 30 30 23.2843 30 15C30 6.71573 23.2843 0 15 0C6.71573 0 0 6.71573 0 15C0 16.528 0.228477 18.0027 0.653132 19.3917C0.761502 19.4112 0.936687 19.4558 1.19192 19.5306L0.793274 13.258C0.793274 13.143 0.987216 13.0878 1.1649 13.0371C1.26242 13.0093 1.35505 12.9829 1.40802 12.9488C1.55269 12.8573 4.53183 13.9451 4.69097 14.0173L8.50059 15.7406C9.48434 15.1196 10.661 14.8693 11.8183 15.0378L15.2808 10.8163C15.3242 7.44683 18.0729 4.73199 21.4533 4.72717C24.6119 4.76087 27.2305 7.16764 27.5294 10.3013C27.8477 13.69 25.3594 16.6936 21.9645 17.0161L16.197 21.1317C15.845 22.9368 14.5526 24.4146 12.8069 25.0018C10.1305 25.9068 7.22268 24.4723 6.32091 21.796L4.31483 21.1317C4.1661 21.0845 1.43629 19.9488 0.696709 19.5317C2.61787 25.601 8.29522 30 15 30ZM24.54 10.8884C24.54 12.5898 23.1582 13.9691 21.4536 13.9691C19.7491 13.9691 18.3673 12.5898 18.3673 10.8884C18.3673 9.18703 19.7491 7.80777 21.4536 7.80777C23.1582 7.80777 24.54 9.18703 24.54 10.8884ZM23.5134 10.8885C23.5134 12.0236 22.5914 12.9438 21.4542 12.9438C20.3169 12.9438 19.395 12.0236 19.395 10.8885C19.395 9.75329 20.3169 8.83307 21.4542 8.83307C22.5914 8.83307 23.5134 9.75329 23.5134 10.8885ZM9.82757 22.9031C10.2423 23.1053 10.7004 23.2112 11.1633 23.2112C11.5153 23.2112 11.8577 23.1534 12.1953 23.0427C12.9717 22.7732 13.6034 22.21 13.9602 21.4735C14.7028 19.938 14.0566 18.0992 12.5232 17.3579C12.2628 17.2328 11.959 17.3387 11.8336 17.5938C11.7082 17.8537 11.8143 18.157 12.0699 18.2821C12.1037 18.2966 12.1374 18.311 12.1712 18.3303C13.1838 18.8501 13.5744 20.0872 13.0536 21.098C12.5328 22.1089 11.2887 22.4988 10.2809 21.9789C10.0205 21.8538 9.71666 21.9597 9.59129 22.2148C9.46591 22.4747 9.572 22.778 9.82757 22.9031Z" fill="#ED1A23"/>
</svg>
